<svg width="22" height="26" viewBox="0 0 22 26" fill="none" xmlns="http://www.w3.org/2000/svg">
<path d="M8.54839 25.5438C7.76211 25.5428 7.00829 25.0909 6.45265 24.2874L0.867318 16.2058C0.311947 15.4027 0 14.3139 0 13.1788C0 12.0437 0.311947 10.955 0.867318 10.1518L1.55931 9.13803C1.83483 8.73869 2.16221 8.42184 2.5227 8.20565C2.88318 7.98945 3.26966 7.87816 3.65998 7.87816C4.05031 7.87816 4.43679 7.98945 4.79727 8.20565C5.15775 8.42184 5.48514 8.73869 5.76066 9.13803L8.54839 13.1788L16.2393 2.07025C16.8067 1.29398 17.5585 0.861328 18.34 0.861328C19.1215 0.861328 19.8733 1.29398 20.4407 2.07025L21.1327 3.08401C21.6881 3.88717 22 4.97589 22 6.11102C22 7.24615 21.6881 8.33487 21.1327 9.13803L10.654 24.2874C10.3777 24.6869 10.0494 25.0037 9.68806 25.2193C9.3267 25.4349 8.93938 25.5452 8.54839 25.5438ZM3.66493 10.7372C3.53413 10.738 3.40475 10.7763 3.28427 10.8498C3.16379 10.9233 3.05461 11.0306 2.96305 11.1656L2.26118 12.165C2.16852 12.2978 2.09498 12.4557 2.04479 12.6297C1.99461 12.8037 1.96877 12.9903 1.96877 13.1788C1.96877 13.3673 1.99461 13.5539 2.04479 13.7279C2.09498 13.9019 2.16852 14.0598 2.26118 14.1926L7.8564 22.2598C8.04162 22.5258 8.29217 22.675 8.55333 22.675C8.81449 22.675 9.06504 22.5258 9.25026 22.2598L19.7388 7.12478C19.8315 6.99205 19.905 6.83413 19.9552 6.66013C20.0054 6.48614 20.0312 6.29951 20.0312 6.11102C20.0312 5.92253 20.0054 5.7359 19.9552 5.56191C19.905 5.38792 19.8315 5.23 19.7388 5.09726L19.0369 4.09778C18.8517 3.83184 18.6012 3.68257 18.34 3.68257C18.0789 3.68257 17.8283 3.83184 17.6431 4.09778L9.25026 16.2058C9.06504 16.4717 8.81449 16.621 8.55333 16.621C8.29217 16.621 8.04162 16.4717 7.8564 16.2058L4.35692 11.1656C4.1744 10.8965 3.92568 10.7426 3.66493 10.7372Z" fill="#34A853"/>
</svg>
