<svg width="16" height="10" viewBox="0 0 16 10" fill="none" xmlns="http://www.w3.org/2000/svg">
<path fill-rule="evenodd" clip-rule="evenodd" d="M8.82491 9.32491C8.60612 9.54362 8.30943 9.66649 8.00007 9.66649C7.69072 9.66649 7.39402 9.54362 7.17524 9.32491L0.575408 2.72507C0.46398 2.61745 0.3751 2.48872 0.313956 2.34638C0.252812 2.20404 0.220628 2.05095 0.219282 1.89604C0.217936 1.74113 0.247455 1.58751 0.306116 1.44413C0.364777 1.30075 0.451406 1.17049 0.560947 1.06095C0.670489 0.951405 0.800749 0.864777 0.944128 0.806116C1.08751 0.747455 1.24113 0.717936 1.39604 0.719282C1.55095 0.720628 1.70404 0.752812 1.84638 0.813956C1.98872 0.8751 2.11745 0.963979 2.22507 1.07541L8.00007 6.85041L13.7751 1.07541C13.9951 0.86289 14.2898 0.745296 14.5957 0.747955C14.9016 0.750613 15.1942 0.87331 15.4105 1.08962C15.6268 1.30593 15.7495 1.59854 15.7522 1.90444C15.7549 2.21034 15.6373 2.50504 15.4247 2.72507L8.82491 9.32491Z" fill="#B9B9B9"/>
</svg>
