<svg width="40" height="40" viewBox="0 0 40 40" fill="none" xmlns="http://www.w3.org/2000/svg">
<path d="M1.875 16.0439V34.7939C1.875 35.457 2.13839 36.0929 2.60723 36.5617C3.07607 37.0306 3.71196 37.2939 4.375 37.2939H35.625C36.288 37.2939 36.9239 37.0306 37.3928 36.5617C37.8616 36.0929 38.125 35.457 38.125 34.7939V16.0439" stroke="#34A853" stroke-width="3" stroke-linecap="round" stroke-linejoin="round"/>
<path d="M9.0625 12.7749C6.54947 13.5423 4.13667 14.6061 1.875 15.9437L18.5812 27.4624C18.9985 27.75 19.4933 27.904 20 27.904C20.5067 27.904 21.0015 27.75 21.4188 27.4624L38.125 15.9437C35.8633 14.6061 33.4505 13.5423 30.9375 12.7749" stroke="#34A853" stroke-width="3" stroke-linecap="round" stroke-linejoin="round"/>
<path d="M9.0625 20.9V4.5625C9.0625 4.06522 9.26004 3.58831 9.61167 3.23667C9.96331 2.88504 10.4402 2.6875 10.9375 2.6875H29.0625C29.5598 2.6875 30.0367 2.88504 30.3883 3.23667C30.74 3.58831 30.9375 4.06522 30.9375 4.5625V20.8938L21.4188 27.4625C21.0015 27.7501 20.5067 27.9041 20 27.9041C19.4933 27.9041 18.9985 27.7501 18.5812 27.4625L9.06875 20.9" stroke="#34A853" stroke-width="3" stroke-linecap="round" stroke-linejoin="round"/>
<path d="M25.9375 8.24365H14.0625" stroke="#34A853" stroke-width="3" stroke-linecap="round" stroke-linejoin="round"/>
<path d="M20 17.875H14.0625" stroke="#34A853" stroke-width="3" stroke-linecap="round" stroke-linejoin="round"/>
<path d="M25.9375 13.0625H14.0625" stroke="#34A853" stroke-width="3" stroke-linecap="round" stroke-linejoin="round"/>
<path d="M15.7375 25.5127L2.68127 36.6377" stroke="#34A853" stroke-width="3" stroke-linecap="round" stroke-linejoin="round"/>
<path d="M24.2312 25.5127L37.325 36.6377" stroke="#34A853" stroke-width="3" stroke-linecap="round" stroke-linejoin="round"/>
</svg>
