<svg width="80" height="80" viewBox="0 0 80 80" fill="none" xmlns="http://www.w3.org/2000/svg">
<path d="M78.1538 56.6156L78 48.9232L77.8461 45.0771C77.8461 43.5386 77.0769 42.0002 76 41.0771C74.923 40.0002 73.3846 39.5386 72 39.5386C66.923 39.8463 65.2307 39.8463 60.3077 40.154C65.0769 40.4617 66.7692 40.4617 72 40.7694C74.4615 40.9232 76.1538 42.9232 76.1538 45.0771L76 48.9232L75.8461 56.6156L75.6923 64.3079V68.154C75.6923 69.0771 75.2307 70.0002 74.6153 70.6156C74 71.2309 73.0769 71.6925 72.1538 71.6925C72 71.6925 59.6923 71.6925 60.4615 71.6925C60.3076 71.6925 48 71.6925 48.7692 71.6925C46.923 71.6925 45.2307 70.154 45.2307 68.3079V64.4617L45.0769 56.7694L44.923 49.0771L44.6153 44.9232C44.4615 42.6156 46.3076 40.6156 48.6153 40.4617L50.3076 40.3079C50.6153 40.3079 50.923 40.3079 51.3846 40.3079C53.2307 40.154 55.5384 40.154 60.1538 39.8463C58 39.6925 55.8461 39.5386 53.5384 39.5386C55.0769 38.6156 55.8461 37.2309 56.1538 35.6925C56.3076 34.9232 56.1538 34.3079 56.3076 33.6925L56.4615 29.8463L56.6153 22.154L56.7692 14.4617L56.923 12.3079C56.923 11.6925 56.923 10.7694 56.7692 10.0002C56.1538 7.53863 54 5.69247 51.3846 5.38478C50.4615 5.23094 50 5.38478 49.2307 5.38478C49.0769 5.38478 36.7692 5.38478 37.5384 5.38478C37.3846 5.38478 27.2307 5.38478 27.8461 5.38478C27.2307 5.38478 26.3076 5.38478 25.5384 5.69247C23.8461 6.15401 22.4615 7.23094 21.6923 8.7694C21.2307 9.53863 21.0769 10.3079 20.923 11.0771C20.923 12.0002 20.923 12.4617 20.923 13.2309V17.0771L21.0769 24.7694L21.2307 32.4617V34.4617C21.2307 35.0771 21.2307 35.8463 21.5384 36.6156C21.8461 37.8463 22.7692 38.9232 23.6923 39.5386C21.2307 39.6925 18.7692 39.8463 16.1538 40.0002C19.2307 40.154 22.4615 40.3079 25.5384 40.4617C25.8461 40.4617 26.1538 40.6156 26.3076 40.6156C26.923 40.6156 27.5384 40.6156 28 40.6156C29.2307 40.6156 30.3076 40.7694 31.5384 40.7694C33.2307 41.0771 34.4615 42.3079 34.923 43.8463C35.0769 44.3079 35.0769 44.7694 35.0769 45.5386L34.923 53.2309L34.6153 68.6156C34.4615 70.0002 33.3846 71.0771 32.1538 71.5386C31.6923 71.6925 31.3846 71.6925 30.6153 71.6925H22.923H7.53841C6.1538 71.5386 4.92303 70.6156 4.61534 69.2309C4.46149 68.7694 4.46149 68.4617 4.46149 67.6925L4.30765 60.0002L3.84611 44.6156C3.84611 43.5386 4.46149 42.4617 5.23072 41.6925C6.1538 40.9232 7.23072 40.6156 8.46149 40.6156C11.0769 40.4617 13.6923 40.3079 16.1538 40.154C13.5384 40.0002 10.923 39.8463 8.46149 39.6925C7.23072 39.5386 5.53841 39.8463 4.46149 40.7694C3.23072 41.5386 2.46149 42.9232 2.1538 44.4617C1.99995 52.154 1.84611 63.0771 1.69226 67.6925C1.69226 68.3079 1.69226 69.2309 1.84611 70.0002C2.46149 72.4617 4.61534 74.3079 7.23072 74.6156C8.1538 74.7694 8.61534 74.6156 9.38457 74.6156C11.5384 74.6156 15.3846 74.6156 15.2307 74.6156H22.923H30.6153C31.2307 74.6156 32.1538 74.6156 32.923 74.3079C35.3846 73.5386 37.2307 71.3848 37.5384 68.9232C37.5384 68.0002 37.5384 67.5386 37.5384 66.7694C37.5384 64.6156 37.3846 60.7694 37.3846 60.9232L37.2307 53.2309L37.0769 45.5386C37.0769 44.9232 37.0769 44.154 36.7692 43.3848C36.6153 42.6156 36.1538 42.0002 35.6923 41.3848C35.3846 40.9232 34.923 40.6156 34.4615 40.3079C36.3076 40.154 38.1538 40.154 40 40.0002C37.6923 39.8463 35.3846 39.6925 33.2307 39.6925C32.7692 39.5386 32.3076 39.3848 31.6923 39.3848C30.4615 39.3848 29.2307 39.3848 28 39.5386C27.5384 39.5386 26.923 39.5386 26.4615 39.3848C24.7692 39.0771 23.3846 37.8463 23.0769 36.3079C22.923 35.3848 23.0769 34.0002 23.0769 32.6156L23.2307 24.9232L23.3846 17.2309V13.3848C23.3846 12.7694 23.3846 12.0002 23.3846 11.5386C23.5384 10.154 24.6153 8.92324 26 8.61555C26.7692 8.46171 28.1538 8.46171 29.5384 8.46171H37.2307C37.3846 8.46171 49.6923 8.46171 48.923 8.46171C49.5384 8.46171 50.3076 8.46171 50.7692 8.46171C51.2307 8.46171 51.6923 8.61555 52 8.92324C52.7692 9.38478 53.3846 10.154 53.6923 11.0771C54 11.8463 53.8461 13.3848 53.8461 14.6156L54 22.3079L54.1538 30.0002L54.3076 33.8463C54.3076 34.4617 54.3076 35.2309 54.3076 35.6925C54.3076 36.3079 54.1538 36.7694 53.8461 37.2309C53.3846 38.154 52.4615 39.0771 51.3846 39.3848C50.923 39.5386 50.4615 39.5386 49.8461 39.6925H48.3076C47.6923 39.6925 47.2307 39.6925 46.6153 40.0002C44.4615 40.154 42.1538 40.154 40 40.3079C41.6923 40.4617 43.3846 40.4617 45.2307 40.6156C44.923 40.7694 44.6153 41.0771 44.3076 41.2309C43.2307 42.3079 42.6153 43.6925 42.6153 45.2309L42.4615 49.0771L42.3076 56.7694L42.1538 64.4617V68.3079C42.1538 70.0002 42.7692 71.6925 44 72.7694C45.2307 74.0002 46.923 74.6156 48.4615 74.6156C48.6153 74.6156 60.923 74.6156 60.1538 74.6156C60.3076 74.6156 72.6153 74.6156 71.8461 74.6156C73.5384 74.6156 75.2307 73.8463 76.3076 72.6156C77.5384 71.3848 78.1538 69.6925 78.1538 68.154V64.3079V56.6156Z" fill="#34A853"/>
<path d="M16 60.6154H23.3847L24.9231 64H27.5385L20.9231 49.2308H18.3077L11.8462 64H14.4616L16 60.6154ZM19.6923 52.1539L22.3077 58.3077H16.9231L19.6923 52.1539ZM65.077 62.6154C65.8462 61.8462 66.1539 60.9231 66.1539 59.8462C66.1539 58.9231 65.8462 58.1539 65.3846 57.5385C64.7693 56.9231 64.1539 56.4615 63.2308 56.3077C63.5385 56.1538 63.6923 56.1539 63.6923 56C63.8462 56 64 55.8462 64.3077 55.6923C65.077 55.0769 65.3846 54.3077 65.3846 53.0769C65.3846 52.1538 65.077 51.2308 64.3077 50.4615C64 50 63.3847 49.6923 62.6154 49.5385C61.8462 49.2308 61.077 49.2308 60 49.2308H54.3077V64H60.7693C62.9231 64 64.3077 63.5385 65.077 62.6154ZM56.9231 51.5385H60.1539C61.077 51.5385 61.6923 51.6923 62.1539 52C62.6154 52.3077 62.7693 52.7692 62.7693 53.5385C62.7693 54.7692 61.8462 55.3846 60 55.3846H56.9231V51.5385ZM56.9231 61.6923V57.6923H60.4616C62.6154 57.6923 63.5385 58.3077 63.5385 59.6923C63.5385 60.4615 63.2308 61.0769 62.7693 61.3846C62.3077 61.6923 61.5385 61.8462 60.6154 61.8462H56.9231V61.6923ZM42 28.1538C41.3846 28.4615 40.6154 28.6154 39.8462 28.6154C38.4616 28.6154 37.2308 28.1538 36.3077 27.0769C35.2308 26 34.7693 24.7692 34.7693 23.3846C34.7693 21.8462 35.2308 20.6154 36.3077 19.6923C37.3847 18.7692 38.6154 18.3077 40 18.3077C40.9231 18.3077 41.5385 18.4615 42.1539 18.7692C42.7693 19.0769 43.3847 19.5385 44.1539 20.1538L45.6923 18.4615C44.1539 16.7692 42.3077 16 40 16C37.6923 16 35.8462 16.7692 34.3077 18.1538C32.7693 19.6923 32 21.3846 32 23.6923C32 25.8462 32.7693 27.6923 34.1539 29.0769C35.6923 30.4615 37.5385 31.2308 39.6923 31.2308C42 31.2308 43.8462 30.3077 45.3847 28.6154L43.8462 26.9231C43.2308 27.3846 42.6154 27.8462 42 28.1538Z" fill="#34A853"/>
</svg>
