<svg width="80" height="80" viewBox="0 0 80 80" fill="none" xmlns="http://www.w3.org/2000/svg">
<path d="M79.0326 30.6574V42.4585C79.0326 50.456 76.0512 58.0134 70.9106 63.7687L70.8775 63.7437L70.9106 63.7852H49.3845C44.7504 58.2874 42.2092 51.328 42.2092 44.1445V18.7732C42.2092 16.6804 44.0031 15.0027 46.1457 15.2021C48.0143 15.3765 49.3847 17.054 49.3847 18.931V15.8416C49.3847 13.874 50.9759 12.254 52.9723 12.254C54.9571 12.254 56.56 13.8568 56.56 15.8416V9.81227C56.56 7.8193 58.1543 6.22461 60.1476 6.22461C62.1242 6.22461 63.7353 7.82742 63.7353 9.81227V13.6657C63.7353 11.6727 65.3297 10.078 67.3229 10.078C69.2995 10.078 70.9106 11.6809 70.9106 13.6657V34.3862C70.9106 32.7501 71.575 31.272 72.6464 30.2005C73.7176 29.1291 75.2042 28.4648 76.8403 28.4648C78.0526 28.4649 79.0326 29.4448 79.0326 30.6574ZM37.7911 18.7732V44.1443C37.7911 51.3279 35.2498 58.2873 30.6157 63.7851H9.0898L9.12293 63.7435L9.0898 63.7685C3.94918 58.0134 0.967773 50.4559 0.967773 42.4584V30.6573C0.967773 29.4448 1.94777 28.4648 3.16027 28.4648C4.79637 28.4648 6.28293 29.1291 7.35418 30.2005C8.42543 31.2718 9.08996 32.7501 9.08996 34.3862V13.6657C9.08996 11.6809 10.7011 10.078 12.6776 10.078C14.6723 10.078 16.2653 11.6745 16.2653 13.6657V9.81227C16.2653 7.82742 17.8764 6.22461 19.8529 6.22461C21.8476 6.22461 23.4406 7.82102 23.4406 9.81227V15.8415C23.4406 13.8566 25.0434 12.2538 27.0282 12.2538C29.027 12.2538 30.6159 13.876 30.6159 15.8415V18.9309C30.6159 17.054 31.9862 15.3763 33.8548 15.202C35.9972 15.0029 37.7911 16.6804 37.7911 18.7732Z" fill="#E5FDEB"/>
<path d="M48.237 73.7754H72.0542C73.5245 73.7754 74.7163 72.5836 74.7163 71.1133V66.4429C74.7163 64.9726 73.5245 63.7808 72.0542 63.7808H48.237C46.7667 63.7808 45.5748 64.9726 45.5748 66.4429V71.1133C45.5748 72.5836 46.7667 73.7754 48.237 73.7754ZM31.7629 73.7754H7.94588C6.47557 73.7754 5.28369 72.5836 5.28369 71.1133V66.4429C5.28369 64.9726 6.47557 63.7808 7.94588 63.7808H31.7631C33.2334 63.7808 34.4253 64.9726 34.4253 66.4429V71.1133C34.4251 72.5836 33.2332 73.7754 31.7629 73.7754Z" fill="#8DFCAB"/>
<path d="M60.2758 34.1844C59.4479 46.3422 47.0191 57.0508 42.0402 60.8753C40.834 61.8019 39.1665 61.8019 37.9602 60.8753C32.9811 57.0508 20.5525 46.3422 19.7246 34.1844C19.2925 27.8397 23.9449 22.0852 30.298 21.8055C34.3271 21.6282 37.911 23.596 40.0002 26.6652C42.0894 23.596 45.6733 21.6282 49.7024 21.8055C56.0554 22.085 60.7079 27.8397 60.2758 34.1844Z" fill="#AFF3C1"/>
<path d="M79.863 30.6564C79.863 28.9881 78.5058 27.6304 76.837 27.6304C74.803 27.6304 72.9803 28.5383 71.7411 29.9651V13.6658C71.7411 11.2295 69.7589 9.24732 67.3227 9.24732C66.3012 9.24732 65.3466 9.60561 64.5641 10.2342V9.8117C64.5641 7.37623 62.5823 5.39404 60.1469 5.39404C57.7109 5.39404 55.7292 7.37623 55.7292 9.8117V12.4169C54.9711 11.8051 54.0205 11.4233 52.973 11.4233C50.6838 11.4233 48.8177 13.1804 48.5986 15.4128C47.937 14.842 47.122 14.4575 46.2205 14.3729C43.6139 14.1247 41.3787 16.1809 41.3787 18.7711V23.8973C40.8897 24.323 40.4208 24.7758 40 25.2842C39.5794 24.7758 39.1105 24.3229 38.6213 23.8972V18.7709C38.6213 16.1911 36.3972 14.1233 33.7798 14.3728C32.878 14.4573 32.063 14.8419 31.4013 15.4128C31.1823 13.1804 29.3162 11.4231 27.0269 11.4231C25.9794 11.4231 25.0287 11.805 24.2706 12.4167V9.81186C24.2706 7.37639 22.2889 5.3942 19.853 5.3942C17.4175 5.3942 15.4358 7.37639 15.4358 9.81186V10.2386C14.6778 9.62686 13.727 9.24498 12.6795 9.24498C10.2436 9.24498 8.26188 11.2272 8.26188 13.6626V29.9689C7.0225 28.5398 5.19844 27.6306 3.16266 27.6306C1.49406 27.6306 0.136719 28.9883 0.136719 30.6565V42.4617C0.136719 49.9687 2.69344 57.1986 7.36312 63.0092C5.71516 63.2884 4.45297 64.7167 4.45297 66.4433V71.1131C4.45297 73.0392 6.01984 74.6061 7.94563 74.6061H31.7627C33.6884 74.6061 35.2553 73.0392 35.2553 71.1131V66.4433C35.2553 64.6981 33.9652 63.2609 32.2913 63.0037C33.1831 61.8222 33.9742 60.5769 34.6808 59.2883C35.7206 60.1733 36.667 60.9297 37.4541 61.5342C38.9352 62.6723 41.0317 62.6972 42.5459 61.5342C43.3309 60.9312 44.2747 60.1769 45.3114 59.2947C46.0217 60.5804 46.817 61.8228 47.7083 63.0036C46.0344 63.2608 44.7442 64.6981 44.7442 66.4431V71.113C44.7442 73.039 46.3111 74.6059 48.2369 74.6059H72.0539C73.9797 74.6059 75.5466 73.039 75.5466 71.113V66.4431C75.5466 64.7164 74.2844 63.2883 72.6364 63.009C77.3061 57.1984 79.8628 49.9686 79.8628 42.4615L79.863 30.6564ZM52.973 13.0842C54.4928 13.0842 55.7292 14.3209 55.7292 15.8408V22.9892C54.0905 21.869 52.2089 21.1914 50.2164 21.0212V15.8408C50.2164 14.3211 51.4531 13.0842 52.973 13.0842ZM43.0397 18.7711C43.0397 17.1842 44.4087 15.8634 46.0652 16.0275C47.4605 16.1581 48.5533 17.4322 48.5533 18.9276V20.9928C46.5756 21.0984 44.6914 21.6775 43.0395 22.6717V18.7711H43.0397ZM33.9353 16.0273C35.5719 15.8615 36.9605 17.1692 36.9605 18.7709V22.6717C35.3075 21.6767 33.4222 21.0972 31.4467 20.992V18.9275C31.4467 17.432 32.5395 16.1579 33.9353 16.0273ZM27.027 13.0842C28.5469 13.0842 29.7836 14.3209 29.7836 15.8408V21.0212C27.7911 21.1914 25.9095 21.8689 24.2708 22.9892V15.8408C24.2708 14.3211 25.5072 13.0842 27.027 13.0842ZM33.5947 66.4433V71.1131C33.5947 72.1236 32.7731 72.9451 31.763 72.9451H7.94594C6.93578 72.9451 6.11422 72.1236 6.11422 71.1131V66.4433C6.11422 65.4328 6.93578 64.6112 7.94594 64.6112H31.763C32.7731 64.6111 33.5947 65.4326 33.5947 66.4433ZM30.2269 62.9501H9.48281C4.52766 57.2775 1.79797 50.0184 1.79797 42.4615V30.6564C1.79797 29.9037 2.41031 29.2914 3.16297 29.2914C5.97156 29.2914 8.25656 31.5761 8.25656 34.3845C8.28062 34.4726 7.56437 41.5145 13.8355 43.8312C16.653 44.8734 18.5458 47.5992 18.5458 50.6145V55.8301C18.5458 56.2892 18.9177 56.6606 19.3763 56.6606C19.8348 56.6606 20.2067 56.2892 20.2067 55.8301V50.6145C20.2067 46.9073 17.878 43.5555 14.4113 42.274C11.7347 41.2839 9.93516 38.6123 9.92016 35.617C9.92031 35.612 9.92297 35.6078 9.92297 35.6026V13.6625C9.92297 12.1426 11.1597 10.9059 12.6795 10.9059C14.1994 10.9059 15.4358 12.1426 15.4358 13.6625V36.1544C15.4358 36.6134 15.8077 36.9848 16.2662 36.9848C16.7248 36.9848 17.0967 36.6134 17.0967 36.1544V9.81186C17.0967 8.29201 18.3331 7.05529 19.853 7.05529C21.3728 7.05529 22.6095 8.29201 22.6095 9.81186V24.3606C19.8948 27.0461 18.6544 30.7061 18.8955 34.2412C19.5656 44.0826 27.5022 52.9097 33.4044 58.1754C32.5028 59.8559 31.4492 61.4606 30.2269 62.9501ZM41.5344 60.217C40.6309 60.9097 39.3686 60.9097 38.4659 60.217C33.3464 56.2844 21.3523 45.8694 20.5527 34.1275C20.1452 28.1473 24.6208 22.6248 30.8011 22.6248C34.2203 22.6248 37.3764 24.2875 39.3134 27.1325C39.6225 27.5867 40.3775 27.5867 40.6864 27.1325C42.7111 24.1576 46.0581 22.4804 49.6655 22.6354C55.6089 22.8973 59.8434 28.312 59.447 34.1275C58.6477 45.8695 46.6536 56.2845 41.5344 60.217ZM73.8858 66.4433V71.1131C73.8858 72.1236 73.0642 72.9451 72.0541 72.9451H48.237C47.2269 72.9451 46.4053 72.1236 46.4053 71.1131V66.4433C46.4053 65.4328 47.2269 64.6112 48.237 64.6112H72.0541C73.0642 64.6111 73.8858 65.4326 73.8858 66.4433ZM78.202 42.4615C78.202 50.0184 75.4723 57.2776 70.5172 62.9501H49.7731C48.5508 61.4606 47.4969 59.8561 46.5953 58.1754C52.4972 52.9095 60.4341 44.0825 61.1042 34.2411C61.3445 30.7176 60.1128 27.0537 57.3902 24.3605V9.81186C57.3902 8.29201 58.6269 7.05529 60.1467 7.05529C61.6666 7.05529 62.903 8.29201 62.903 9.81186V36.1544C62.903 36.6178 63.2805 36.9856 63.735 36.9856C64.1936 36.9856 64.5655 36.6142 64.5655 36.1551V13.6658C64.5655 12.1417 65.7783 10.9083 67.3225 10.9083C68.8431 10.9083 70.08 12.145 70.08 13.6658V35.5819C70.08 35.5848 70.0816 35.5873 70.0817 35.5903C70.0777 38.5967 68.2733 41.2812 65.5886 42.2744C62.1219 43.5558 59.7931 46.9076 59.7931 50.6148V55.8304C59.7931 56.2895 60.165 56.6609 60.6236 56.6609C61.0822 56.6609 61.4541 56.2895 61.4541 55.8304V50.6148C61.4541 47.5995 63.347 44.8737 66.1644 43.8315C69.5013 42.5987 71.7433 39.2826 71.7433 35.5803V34.3848C71.7433 31.5762 74.0283 29.2917 76.8369 29.2917C77.5895 29.2917 78.2019 29.904 78.2019 30.6567V42.4615H78.202Z" fill="#34A853"/>
</svg>
