<svg width="70" height="70" viewBox="0 0 70 70" fill="none" xmlns="http://www.w3.org/2000/svg">
<path d="M53.2859 37.1875H55.7812C59.4 37.1875 62.3438 34.2438 62.3438 30.625C62.3438 28.2022 61.0208 26.0872 59.0625 24.9504V18.5938C59.0625 8.34091 50.7216 0 40.4688 0H29.5312C19.2784 0 10.9375 8.34091 10.9375 18.5938V24.9504C8.97924 26.0872 7.65625 28.2022 7.65625 30.625C7.65625 34.2438 10.6 37.1875 14.2188 37.1875H16.7141C17.6468 42.396 20.7489 46.8502 25.0562 49.5909L19.1492 52.3505C14.1605 54.6747 10.9375 59.7301 10.9375 65.2309V68.9062C10.9375 69.5108 11.4272 70 12.0312 70H57.9688C58.5733 70 59.0625 69.5108 59.0625 68.9062V65.2309C59.0625 59.7301 55.8389 54.6747 50.8519 52.3505L44.9438 49.5909C49.2511 46.8502 52.3531 42.396 53.2859 37.1875ZM55.7812 35H53.5938V31.7188H55.7812C56.3858 31.7188 56.875 31.2296 56.875 30.625C56.875 30.0204 56.3858 29.5312 55.7812 29.5312H53.5938V26.25H55.7812C58.1941 26.25 60.1562 28.2121 60.1562 30.625C60.1562 33.0379 58.1941 35 55.7812 35ZM13.125 18.5938C13.125 9.54681 20.4848 2.1875 29.5312 2.1875H40.4688C49.5157 2.1875 56.875 9.54681 56.875 18.5938V24.1613C56.5184 24.1011 56.1546 24.0625 55.7812 24.0625H53.5938V19.6875C53.5938 19.0829 53.1046 18.5938 52.5 18.5938C51.8954 18.5938 51.4062 19.0829 51.4062 19.6875V21.875C51.4062 23.6844 49.9344 25.1562 48.125 25.1562C46.3156 25.1562 44.8438 23.6844 44.8438 21.875V19.6875C44.8438 19.0829 44.3546 18.5938 43.75 18.5938C43.1454 18.5938 42.6562 19.0829 42.6562 19.6875V21.875C42.6562 23.6844 41.1844 25.1562 39.375 25.1562C37.5656 25.1562 36.0938 23.6844 36.0938 21.875V19.6875C36.0938 19.0829 35.604 18.5938 35 18.5938C34.396 18.5938 33.9062 19.0829 33.9062 19.6875V21.875C33.9062 23.6844 32.4344 25.1562 30.625 25.1562C28.8156 25.1562 27.3438 23.6844 27.3438 21.875V19.6875C27.3438 19.0829 26.854 18.5938 26.25 18.5938C25.646 18.5938 25.1562 19.0829 25.1562 19.6875V21.875C25.1562 23.6844 23.6844 25.1562 21.875 25.1562C20.0656 25.1562 18.5938 23.6844 18.5938 21.875V19.6875C18.5938 19.0829 18.104 18.5938 17.5 18.5938C16.896 18.5938 16.4062 19.0829 16.4062 19.6875V24.0625H14.2188C13.8454 24.0625 13.4816 24.1011 13.125 24.1613V18.5938ZM16.4062 35H14.2188C11.8064 35 9.84375 33.0379 9.84375 30.625C9.84375 28.2121 11.8064 26.25 14.2188 26.25H16.4062V29.5312H14.2188C13.6147 29.5312 13.125 30.0204 13.125 30.625C13.125 31.2296 13.6147 31.7188 14.2188 31.7188H16.4062V35ZM29.5312 51.6767C31.2613 52.2101 33.0972 52.5 35 52.5C36.9028 52.5 38.7387 52.2101 40.4688 51.6767V52.5C40.4688 55.5153 38.0153 57.9688 35 57.9688C31.9847 57.9688 29.5312 55.5153 29.5312 52.5V51.6767ZM56.875 65.2309V67.8125H13.125V65.2309C13.125 60.5771 15.8524 56.2993 20.0742 54.3329L27.3438 50.9371V52.5C27.3438 56.7212 30.7783 60.1562 35 60.1562C39.2212 60.1562 42.6562 56.7212 42.6562 52.5V50.9368L49.928 54.3329C54.1481 56.2993 56.875 60.5771 56.875 65.2309ZM35 50.3125C25.9536 50.3125 18.5938 42.9532 18.5938 33.9062V26.222C19.5106 26.9161 20.6391 27.3438 21.875 27.3438C23.6702 27.3438 25.2522 26.4625 26.25 25.1224C27.2478 26.4625 28.8298 27.3438 30.625 27.3438C32.4202 27.3438 34.0022 26.4625 35 25.1224C35.9978 26.4625 37.5798 27.3438 39.375 27.3438C41.1702 27.3438 42.7522 26.4625 43.75 25.1224C44.7478 26.4625 46.3298 27.3438 48.125 27.3438C49.3609 27.3438 50.4894 26.9161 51.4062 26.222V33.9062C51.4062 42.9532 44.0469 50.3125 35 50.3125ZM42.6562 36.0938H27.3438C26.7397 36.0938 26.25 36.5829 26.25 37.1875V38.2812C26.25 43.1059 30.1753 47.0312 35 47.0312C39.8247 47.0312 43.75 43.1059 43.75 38.2812V37.1875C43.75 36.5829 43.2608 36.0938 42.6562 36.0938ZM35 44.8438C31.3812 44.8438 28.4375 41.9 28.4375 38.2812H41.5625C41.5625 41.9 38.6188 44.8438 35 44.8438ZM26.5704 32.4921C26.1432 32.0648 26.1432 31.3727 26.5704 30.9454C28.2025 29.3134 30.86 29.3134 32.4921 30.9454C32.9193 31.3727 32.9193 32.0648 32.4921 32.4921C32.2784 32.7057 31.9986 32.8125 31.7188 32.8125C31.4389 32.8125 31.1591 32.7057 30.9454 32.4921C30.1657 31.7123 28.8968 31.7123 28.1171 32.4921C27.6898 32.9193 26.9977 32.9193 26.5704 32.4921ZM43.4296 30.9454C43.8568 31.3727 43.8568 32.0648 43.4296 32.4921C43.2159 32.7057 42.9361 32.8125 42.6562 32.8125C42.3764 32.8125 42.0966 32.7057 41.8829 32.4921C41.1032 31.7123 39.8343 31.7123 39.0546 32.4921C38.6273 32.9193 37.9352 32.9193 37.5079 32.4921C37.0807 32.0648 37.0807 31.3727 37.5079 30.9454C39.14 29.3134 41.7975 29.3134 43.4296 30.9454Z" fill="url(#paint0_linear_210_553)"/>
<defs>
<linearGradient id="paint0_linear_210_553" x1="35" y1="70" x2="35" y2="0" gradientUnits="userSpaceOnUse">
<stop offset="0.001" stop-color="#34A853"/>
<stop offset="0.999" stop-color="#78FF9C"/>
</linearGradient>
</defs>
</svg>
