<svg width="80" height="80" viewBox="0 0 80 80" fill="none" xmlns="http://www.w3.org/2000/svg">
<path d="M74.2675 38.2325L65 28.965V17.5C65 16.8369 64.7366 16.201 64.2677 15.7322C63.7989 15.2633 63.163 15 62.5 15H51.035L41.7675 5.73245C41.2986 5.26378 40.6629 5.00049 40 5.00049C39.337 5.00049 38.7013 5.26378 38.2325 5.73245L28.965 15H17.5C16.8369 15 16.201 15.2633 15.7322 15.7322C15.2633 16.201 15 16.8369 15 17.5V28.965L5.73245 38.2325C5.26378 38.7013 5.00049 39.337 5.00049 40C5.00049 40.6629 5.26378 41.2986 5.73245 41.7675L15 51.035V62.5C15 63.163 15.2633 63.7989 15.7322 64.2677C16.201 64.7366 16.8369 65 17.5 65H28.965L38.2325 74.2675C38.7013 74.7361 39.337 74.9994 40 74.9994C40.6629 74.9994 41.2986 74.7361 41.7675 74.2675L51.035 65H62.5C63.163 65 63.7989 64.7366 64.2677 64.2677C64.7366 63.7989 65 63.163 65 62.5V51.035L74.2675 41.7675C74.7361 41.2986 74.9994 40.6629 74.9994 40C74.9994 39.337 74.7361 38.7013 74.2675 38.2325ZM47.4575 50.0725C46.2007 50.7802 44.7959 51.1844 43.3552 51.2525C41.9145 51.3207 40.4779 51.051 39.16 50.465C37.4108 49.6988 35.8762 48.5155 34.6905 47.0187C33.5048 45.5218 32.7041 43.757 32.3587 41.879C32.0133 40.0009 32.1336 38.0668 32.7092 36.246C33.2847 34.4252 34.2979 32.7733 35.66 31.435C36.6865 30.4291 37.9315 29.6738 39.2979 29.228C40.6643 28.7822 42.1152 28.658 43.5375 28.865C43.694 28.9004 43.8375 28.9789 43.9517 29.0917C44.066 29.2045 44.1464 29.3469 44.1838 29.503C44.2213 29.6591 44.2143 29.8226 44.1637 29.9749C44.1131 30.1272 44.0209 30.2623 43.8975 30.365C42.3192 31.5948 41.0788 33.2051 40.2925 35.045C39.5846 36.7785 39.3908 38.6792 39.7344 40.5199C40.078 42.3607 40.9444 44.0635 42.23 45.425C43.6066 46.8789 45.336 47.952 47.25 48.54C47.4031 48.5904 47.539 48.683 47.6421 48.807C47.7451 48.931 47.8113 49.0815 47.8329 49.2413C47.8545 49.4011 47.8308 49.5638 47.7644 49.7108C47.698 49.8577 47.5917 49.9831 47.4575 50.0725Z" fill="#34A853"/>
</svg>
