<svg width="80" height="80" viewBox="0 0 80 80" fill="none" xmlns="http://www.w3.org/2000/svg">
<path d="M57.2075 9.5C56.2325 9.5025 55.2675 9.855 54.56 10.5625L51.06 14.0625L47.49 17.6325L15.665 49.45C15.5975 49.5175 15.565 49.6 15.515 49.68C15.2275 49.8334 15.0119 50.0939 14.915 50.405L10.06 65.875C9.99226 66.0939 9.98575 66.3271 10.0412 66.5495C10.0966 66.7718 10.2118 66.9747 10.3743 67.1362C10.5368 67.2977 10.7405 67.4116 10.9632 67.4656C11.1858 67.5196 11.419 67.5116 11.6375 67.4425L27.3225 62.3575C27.5583 62.2762 27.764 62.1254 27.9125 61.925C27.955 61.8925 28.005 61.875 28.045 61.835L59.865 30.015L66.935 22.94C67.6371 22.2353 68.0313 21.281 68.0313 20.2862C68.0313 19.2915 67.6371 18.3372 66.935 17.6325L59.865 10.5625C59.1551 9.87176 58.2004 9.49058 57.21 9.5025L57.2075 9.5ZM57.2075 11.9775C57.5325 11.9775 57.8575 12.0925 58.095 12.3275L65.165 19.4C65.3993 19.6344 65.531 19.9523 65.531 20.2837C65.531 20.6152 65.3993 20.9331 65.165 21.1675L62.55 23.785L53.71 14.9475L56.3275 12.33C56.4436 12.216 56.5811 12.1261 56.7322 12.0656C56.8832 12.0051 57.0448 11.9751 57.2075 11.9775ZM51.9425 16.715L60.78 25.5525L58.98 27.3575L54.56 22.9325L50.135 18.52L51.9425 16.715ZM48.3675 20.29L50.1375 22.055L21.46 50.7325L18.585 50.0675L48.37 20.2875L48.3675 20.29ZM51.905 23.8225L52.7925 24.7075L53.6775 25.59L25 54.265L23.105 54.34V52.6225L51.905 23.8225ZM55.44 27.3575L57.2075 29.125L27.6175 58.715L26.9175 55.875L55.44 27.3575ZM16.95 52.2575L20.6025 53.1V55.64C20.6024 55.8084 20.6363 55.9752 20.7022 56.1302C20.7681 56.2852 20.8647 56.4253 20.9861 56.542C21.1075 56.6588 21.2513 56.7498 21.4088 56.8096C21.5662 56.8694 21.7342 56.8967 21.9025 56.89L24.5625 56.7825L25.4425 60.3325L19.5175 62.25C19.4593 62.078 19.3627 61.9216 19.235 61.7925L15.7 58.2575C15.5498 58.1122 15.3646 58.008 15.1625 57.955L16.95 52.2575ZM14.375 60.4625L16.9875 63.0725L13.1625 64.31L14.375 60.4625Z" fill="#34A853"/>
</svg>
