<svg width="57" height="70" viewBox="0 0 57 70" fill="none" xmlns="http://www.w3.org/2000/svg">
<path d="M56.457 5.42969V62.793C56.457 60.8594 55.6758 59.1211 54.4062 57.8516C53.1367 56.582 51.3984 55.8008 49.4648 55.8008H0.695312V0.078125H49.6602C51.5938 0.078125 53.332 0.859375 54.6016 2.12891C55.5 3.02734 56.1445 4.16016 56.457 5.42969Z" fill="#34A853"/>
<path d="M56.457 5.42969V62.8125C56.457 60.8789 55.6758 59.1406 54.4062 57.8711C53.2148 56.6797 51.6133 55.918 49.8164 55.8398V0.078125C51.6914 0.117188 53.3711 0.898437 54.6016 2.12891C55.5 3.02734 56.1445 4.16016 56.457 5.42969Z" fill="#009428"/>
<path d="M35.793 23.9648V17.5195H29.3477L24.7969 12.9688L20.2461 17.5195H13.8008V23.9648L9.25 28.5156L13.8008 33.0664V39.5117H20.2461L24.7969 44.0625L29.3477 39.5117H35.793V33.0664L40.3438 28.5156L35.793 23.9648ZM31.5547 31.3086V35.2734H27.5898L24.7969 38.0664L22.0039 35.2734H18.0391V31.3086L15.2461 28.5156L18.0391 25.7227V21.7578H22.0039L24.7969 18.9648L27.5898 21.7578H31.5547V25.7227L34.3477 28.5156L31.5547 31.3086Z" fill="#808581"/>
<path d="M36.4766 23.2813V16.8359H30.0312L25.4609 12.2852L20.9102 16.8359H14.4648V23.2813L9.91406 27.832L14.4648 32.3828V38.8281H20.9102L25.4609 43.3984L30.0117 38.8477H36.457V32.4023L41.0078 27.8516L36.4766 23.2813ZM32.2383 30.625V34.5898H28.2734L25.4609 37.4023L22.668 34.6094H18.7031V30.6445L15.9102 27.8516L18.7031 25.0586V21.0938H22.668L25.4609 18.3008L28.2539 21.0938H32.2188V25.0391L35.0117 27.832L32.2383 30.625Z" fill="white"/>
<path d="M53.8398 62.793V63.2031C53.8398 63.2422 53.8398 63.2813 53.8203 63.3203C53.8203 63.3789 53.8008 63.457 53.8008 63.5156C53.7813 63.6523 53.7422 63.7695 53.7227 63.9063C53.7031 63.9844 53.6836 64.082 53.6445 64.1602C53.0977 65.918 51.457 67.1875 49.5625 67.1875H1.51562V58.4375H49.5234C51.6719 58.4375 53.4492 60.0391 53.7812 62.1484C53.8203 62.3438 53.8398 62.5781 53.8398 62.793Z" fill="#E6E8E7"/>
<path d="M56.457 62.793C56.457 63.457 56.3594 64.1016 56.1836 64.707C55.3828 67.5195 52.8633 69.6289 49.8164 69.7852C49.6992 69.7852 49.582 69.8047 49.4648 69.8047H0.695312V67.168H49.6016C51.457 67.168 53.0586 65.918 53.6055 64.1602C53.7422 63.7305 53.8203 63.2812 53.8203 62.793C53.8203 60.3906 51.9258 58.418 49.6016 58.418H0.695312V55.8008H49.4648C51.3984 55.8008 53.1367 56.582 54.4062 57.8516C55.6758 59.1211 56.457 60.8594 56.457 62.793Z" fill="#165B28"/>
<path d="M53.8398 62.793V63.2031C53.8398 63.2422 53.8398 63.2813 53.8203 63.3203C53.8203 63.3789 53.8008 63.457 53.8008 63.5156C53.7813 63.6523 53.7617 63.7891 53.7227 63.9063C53.7031 64.0039 53.6836 64.082 53.6445 64.1797V64.1602C53.6641 63.9844 53.6836 63.7891 53.6836 63.5937C53.6836 61.1914 51.7891 59.2188 49.4648 59.2188H1.51562V58.4375H49.6016C51.7109 58.4375 53.4688 60.0391 53.7617 62.1484C53.8203 62.3438 53.8398 62.5781 53.8398 62.793Z" fill="#404241"/>
<path d="M49.8164 53.3008C49.2695 53.3008 48.8398 52.8711 48.8398 52.3242V14.6484C48.8398 14.1016 49.2695 13.6719 49.8164 13.6719C50.3633 13.6719 50.793 14.1016 50.793 14.6484V52.3242C50.793 52.8516 50.3633 53.3008 49.8164 53.3008ZM49.8164 12.6563C49.2695 12.6563 48.8398 12.2266 48.8398 11.6797V5.83984C48.8398 5.29297 49.2695 4.86328 49.8164 4.86328C50.3633 4.86328 50.793 5.29297 50.793 5.83984V11.6797C50.793 12.2266 50.3633 12.6563 49.8164 12.6563Z" fill="white"/>
<path d="M44.7188 51.4453H4.66016V5.78125H44.7383V51.4453H44.7188ZM7.45313 48.3398H41.9258V8.88672H7.45313V48.3398Z" fill="#808581"/>
<path d="M45.5 50.6641H5.44141V5H45.5195V50.6641H45.5ZM8.23438 47.5586H42.707V8.10547H8.23438V47.5586Z" fill="white"/>
</svg>
