<svg width="90" height="90" viewBox="0 0 90 90" fill="none" xmlns="http://www.w3.org/2000/svg">
<path fill-rule="evenodd" clip-rule="evenodd" d="M17.8312 36.1125L13.8515 34.7766C13.5549 34.6823 13.2403 34.6586 12.9329 34.7075C12.6254 34.7564 12.3337 34.8765 12.081 35.0582C11.8282 35.2399 11.6214 35.4782 11.4772 35.7541C11.3329 36.0299 11.2551 36.3356 11.25 36.6469V40.8656C11.2565 41.2844 11.3963 41.6901 11.6492 42.024C11.9021 42.3578 12.2549 42.6023 12.6562 42.7219L15.6937 43.7344V47.1375C15.6995 48.6949 16.1938 50.2112 17.1071 51.4726C18.0204 52.7341 19.3066 53.6771 20.7844 54.1688L29.1375 56.9813L16.4812 61.2C14.9589 61.6731 13.6289 62.6227 12.687 63.9088C11.7452 65.195 11.2414 66.7496 11.25 68.3437V72.3797C11.2499 72.5177 11.2831 72.6536 11.3467 72.776C11.4104 72.8984 11.5026 73.0037 11.6156 73.0828C11.7305 73.1642 11.8625 73.218 12.0016 73.2399C12.1406 73.2619 12.2828 73.2514 12.4172 73.2094L45 62.3531L77.5828 73.2094C77.7171 73.2514 77.8594 73.2619 77.9984 73.2399C78.1374 73.218 78.2695 73.1642 78.3844 73.0828C78.4974 73.0037 78.5896 72.8984 78.6532 72.776C78.7169 72.6536 78.7501 72.5177 78.75 72.3797V68.3437C78.7433 66.7846 78.2468 65.2671 77.3309 64.0054C76.4149 62.7437 75.1257 61.8017 73.6453 61.3125L72.6609 60.9891C72.553 60.9518 72.4386 60.9364 72.3246 60.9439C72.2107 60.9513 72.0993 60.9815 71.9971 61.0326C71.895 61.0837 71.804 61.1546 71.7297 61.2413C71.6553 61.3281 71.599 61.4287 71.5641 61.5375C71.5265 61.6464 71.511 61.7617 71.5183 61.8767C71.5256 61.9916 71.5556 62.104 71.6066 62.2073C71.6576 62.3106 71.7286 62.4028 71.8154 62.4785C71.9022 62.5542 72.0032 62.612 72.1125 62.6484L73.0969 62.9719C74.2306 63.3495 75.2168 64.0742 75.9158 65.0433C76.6149 66.0125 76.9915 67.1769 76.9922 68.3719V71.1844L21.2906 52.5938C20.1511 52.2255 19.1588 51.5033 18.4581 50.532C17.7575 49.5608 17.3852 48.3913 17.3953 47.1938V44.3813L67.725 61.1578C67.945 61.2324 68.1857 61.2165 68.394 61.1137C68.6024 61.0108 68.7613 60.8294 68.8359 60.6094C68.9105 60.3893 68.8946 60.1487 68.7918 59.9403C68.6889 59.732 68.5075 59.573 68.2875 59.4984L60.9187 57.0375L69.2719 54.225C70.7496 53.7334 72.0358 52.7903 72.9491 51.5289C73.8624 50.2674 74.3568 48.7511 74.3625 47.1938V44.6766C74.3589 44.3949 74.2967 44.1171 74.1797 43.8609L77.3437 42.7781C77.7451 42.6585 78.0979 42.414 78.3508 42.0802C78.6037 41.7464 78.7435 41.3406 78.75 40.9219V36.7031C78.7449 36.3919 78.6671 36.0861 78.5228 35.8103C78.3785 35.5345 78.1718 35.2962 77.919 35.1145C77.6663 34.9328 77.3745 34.8127 77.0671 34.7638C76.7597 34.7149 76.4451 34.7385 76.1484 34.8328L72.1687 36.1687V34.0734C72.1677 33.8104 72.1137 33.5503 72.0098 33.3087C71.9059 33.067 71.7543 32.8488 71.5641 32.6672C71.1851 32.3074 70.6803 32.1105 70.1578 32.1188L60.3141 32.4844C54.6984 32.6896 49.3107 34.7576 45 38.3625C40.6874 34.7496 35.2941 32.6764 29.6719 32.4703L19.8281 32.1047C19.3057 32.0965 18.8008 32.2934 18.4219 32.6531C18.2316 32.8348 18.08 33.053 17.9761 33.2946C17.8722 33.5362 17.8182 33.7964 17.8172 34.0594L17.8312 36.1125ZM31.8937 57.9656L42.1875 61.425L13.0078 71.1562V68.3437C13.0065 67.1522 13.379 65.9904 14.0727 65.0217C14.7665 64.0529 15.7465 63.3262 16.875 62.9438L31.8937 57.9656ZM45 56.1656C45.1764 56.1628 45.3496 56.2128 45.4974 56.3091C45.6452 56.4053 45.761 56.5435 45.8297 56.706C45.8985 56.8684 45.9173 57.0477 45.8835 57.2209C45.8498 57.394 45.7651 57.5532 45.6404 57.6779C45.5157 57.8026 45.3565 57.8873 45.1834 57.921C45.0102 57.9548 44.8309 57.9361 44.6685 57.8673C44.506 57.7985 44.3678 57.6827 44.2715 57.5349C44.1753 57.3871 44.1253 57.2139 44.1281 57.0375C44.1281 56.8063 44.22 56.5845 44.3835 56.421C44.547 56.2575 44.7688 56.1656 45 56.1656ZM58.1484 56.1656L47.8125 52.6641L72.3656 44.4797C72.3955 44.4624 72.4295 44.4533 72.4641 44.4533C72.4986 44.4533 72.5326 44.4624 72.5625 44.4797C72.5879 44.5 72.6087 44.5257 72.6232 44.5548C72.6378 44.5839 72.6459 44.6159 72.6469 44.6484V47.1656C72.657 48.3631 72.2846 49.5326 71.584 50.5039C70.8834 51.4751 69.8911 52.1974 68.7516 52.5656L58.1484 56.1656ZM29.6719 40.0922C29.7598 40.0723 29.8511 40.0723 29.9391 40.0922L44.1281 44.8172V39.9094C40.0634 36.4421 34.9413 34.4587 29.6015 34.2844L19.7578 33.9188C19.7034 33.8982 19.6434 33.8982 19.589 33.9188C19.5695 33.9685 19.5695 34.0237 19.589 34.0734V36.6891L25.5515 38.6859C25.6605 38.7219 25.7613 38.7791 25.8482 38.854C25.9351 38.929 26.0063 39.0203 26.0579 39.1228C26.1095 39.2254 26.1404 39.337 26.1488 39.4515C26.1572 39.5659 26.143 39.6809 26.107 39.7898C26.071 39.8988 26.0139 39.9996 25.9389 40.0865C25.864 40.1734 25.7726 40.2446 25.6701 40.2962C25.5676 40.3478 25.4559 40.3787 25.3415 40.3871C25.227 40.3955 25.1121 40.3813 25.0031 40.3453L13.3031 36.45C13.2732 36.4327 13.2392 36.4236 13.2047 36.4236C13.1701 36.4236 13.1362 36.4327 13.1062 36.45C13.0774 36.4681 13.0534 36.4929 13.0363 36.5223C13.0192 36.5517 13.0094 36.5848 13.0078 36.6188V40.8375C13.0092 40.8825 13.0249 40.9259 13.0528 40.9614C13.0806 40.9968 13.1191 41.0224 13.1625 41.0344L16.7906 42.2438L45 51.7359L76.8375 41.1187C76.8809 41.1068 76.9194 41.0812 76.9472 41.0457C76.975 41.0103 76.9908 40.9669 76.9922 40.9219V36.7031C76.9906 36.6691 76.9808 36.6361 76.9637 36.6067C76.9465 36.5773 76.9225 36.5525 76.8937 36.5344C76.8638 36.5171 76.8299 36.508 76.7953 36.508C76.7607 36.508 76.7268 36.5171 76.6969 36.5344L45.2812 46.9125H45.1687H44.8594H44.7609L29.3906 41.8078C29.2801 41.7728 29.1776 41.7161 29.0893 41.641C29.0009 41.5659 28.9284 41.4739 28.876 41.3705C28.8237 41.267 28.7924 41.1542 28.7842 41.0385C28.776 40.9228 28.7909 40.8067 28.8281 40.6969C28.8865 40.5224 28.9978 40.3705 29.1464 40.2621C29.2951 40.1537 29.4738 40.0944 29.6578 40.0922H29.6719ZM70.4531 36.6891L45.8719 44.8734V39.9094C49.9365 36.4421 55.0587 34.4587 60.3984 34.2844L70.2422 33.9188C70.2966 33.8982 70.3565 33.8982 70.4109 33.9188C70.4305 33.9685 70.4305 34.0237 70.4109 34.0734L70.4531 36.6891ZM54.3375 27.0281L58.725 23.2313C58.8124 23.1559 58.884 23.064 58.9356 22.9608C58.9872 22.8576 59.0178 22.7452 59.0256 22.6301C59.0335 22.515 59.0184 22.3995 58.9813 22.2903C58.9442 22.181 58.8857 22.0802 58.8094 21.9938C58.6552 21.8205 58.4392 21.7146 58.2078 21.6989C57.9765 21.6831 57.7481 21.7587 57.5719 21.9094L53.1844 25.7063C53.0111 25.8604 52.9053 26.0764 52.8895 26.3078C52.8737 26.5391 52.9493 26.7675 53.1 26.9438C53.1753 27.0311 53.2672 27.1027 53.3704 27.1543C53.4736 27.2059 53.586 27.2366 53.7011 27.2444C53.8162 27.2523 53.9317 27.2372 54.041 27.2001C54.1502 27.1629 54.251 27.1045 54.3375 27.0281ZM36.8156 25.7063L32.4281 21.9094C32.2518 21.7587 32.0235 21.6831 31.7921 21.6989C31.5608 21.7146 31.3448 21.8205 31.1906 21.9938C31.1143 22.0802 31.0558 22.181 31.0187 22.2903C30.9816 22.3995 30.9665 22.515 30.9743 22.6301C30.9822 22.7452 31.0128 22.8576 31.0644 22.9608C31.116 23.064 31.1876 23.1559 31.275 23.2313L35.6625 27.0281C35.749 27.1045 35.8498 27.1629 35.959 27.2001C36.0682 27.2372 36.1838 27.2523 36.2989 27.2444C36.414 27.2366 36.5264 27.2059 36.6296 27.1543C36.7327 27.1027 36.8247 27.0311 36.9 26.9438C37.0507 26.7675 37.1263 26.5391 37.1105 26.3078C37.0947 26.0764 36.9888 25.8604 36.8156 25.7063ZM45.8719 24.1734V17.6063C45.8719 17.4918 45.8493 17.3784 45.8055 17.2726C45.7617 17.1668 45.6975 17.0707 45.6165 16.9897C45.5355 16.9088 45.4394 16.8446 45.3336 16.8007C45.2279 16.7569 45.1145 16.7344 45 16.7344C44.8855 16.7344 44.7721 16.7569 44.6663 16.8007C44.5606 16.8446 44.4644 16.9088 44.3835 16.9897C44.3025 17.0707 44.2383 17.1668 44.1945 17.2726C44.1507 17.3784 44.1281 17.4918 44.1281 17.6063V24.1734C44.1281 24.2879 44.1507 24.4013 44.1945 24.5071C44.2383 24.6129 44.3025 24.709 44.3835 24.7899C44.4644 24.8709 44.5606 24.9351 44.6663 24.9789C44.7721 25.0228 44.8855 25.0453 45 25.0453C45.1145 25.0453 45.2279 25.0228 45.3336 24.9789C45.4394 24.9351 45.5355 24.8709 45.6165 24.7899C45.6975 24.709 45.7617 24.6129 45.8055 24.5071C45.8493 24.4013 45.8719 24.2879 45.8719 24.1734Z" fill="#34A853"/>
</svg>
